<svg xmlns="http://www.w3.org/2000/svg" viewBox="0 0 500 500"><defs><style>.a{fill:none;}.b{fill:#405668;}</style></defs><g transform="translate(-6445 -8595)"><rect class="a" width="500" height="500" transform="translate(6445 8595)"/><path class="b" d="M160.9,398.927a200.446,200.446,0,0,1-72.055-30.321,202.111,202.111,0,0,1-73.008-88.658A200.486,200.486,0,0,1,4.093,242.122a203.512,203.512,0,0,1,0-81.223A200.443,200.443,0,0,1,34.415,88.844a202.1,202.1,0,0,1,88.657-73.008A200.541,200.541,0,0,1,160.9,4.094a203.455,203.455,0,0,1,81.222,0,200.395,200.395,0,0,1,72.055,30.321c3.983,2.691,7.929,5.569,11.728,8.555L290.129,78.745c-1.3-.939-2.632-1.873-3.97-2.778a151.493,151.493,0,1,0,0,251.086c1.121-.758,2.249-1.542,3.35-2.33l35.8,35.8c-3.614,2.818-7.358,5.538-11.129,8.086A202.1,202.1,0,0,1,160.9,398.927Zm163.376-108.8c.939-1.3,1.873-2.634,2.777-3.971a151.194,151.194,0,0,0,0-169.3c-.757-1.121-1.541-2.249-2.329-3.35l35.8-35.8c2.82,3.616,5.54,7.36,8.086,11.129a201.242,201.242,0,0,1,0,225.332c-2.691,3.983-5.569,7.929-8.555,11.728h0ZM153.027,201.51a48.483,48.483,0,1,1,48.483,48.483A48.483,48.483,0,0,1,153.027,201.51Z" transform="translate(6493.49 8643.489)"/></g></svg>